<svg id="Layer_1" data-name="Layer 1" xmlns="http://www.w3.org/2000/svg" viewBox="0 0 636.369 514.039"><path d="M419.977,286.468l16.046-30.26a5.422,5.422,0,0,1,7.745-2,5.609,5.609,0,0,1,1.7,7.329l-3.441,6.489,20.186-15.438c2.215-1.755,6.055-2.493,7.86.12a5.419,5.419,0,0,1-.014,6.746.347.347,0,0,1,.059.056.418.418,0,0,1,.028.056l3.415-2.707a5.425,5.425,0,0,1,8.222,1.832,5.548,5.548,0,0,1-1.647,6.787l-1.453,1.152a.491.491,0,0,1,.011.175,5.419,5.419,0,0,1,6.779,1.821,5.592,5.592,0,0,1-1.3,7.482l-3.609,2.861a.5.5,0,0,1,.418.186.493.493,0,0,1,.093.263,5.424,5.424,0,0,1,5.835,3.039,5.544,5.544,0,0,1-1.708,6.666L454.75,313.261a27.292,27.292,0,0,1-30.423,2.351h0a18.01,18.01,0,0,1-7.024-24.1Z" fill="#E98862"></path><g opacity="0.2"><path d="M450.153,274.83a.5.5,0,0,0,.694.084l19.178-14.706a.5.5,0,0,0-.609-.793l-19.178,14.7a.5.5,0,0,0-.092.7Z" fill="#0c0c0c"></path></g><g opacity="0.2"><path d="M456.405,283.467a.5.5,0,0,0,.694.084l21.4-16.412a.5.5,0,0,0,.092-.7.517.517,0,0,0-.7-.092l-21.4,16.411a.5.5,0,0,0-.092.7Z" fill="#0c0c0c"></path></g><g opacity="0.2"><path d="M463.123,292.861a.5.5,0,0,0,.694.083l17.073-13.091a.5.5,0,0,0-.609-.793l-17.073,13.091a.5.5,0,0,0-.092.7Z" fill="#0c0c0c"></path></g><path d="M419.977,286.468l16.046-30.26a5.422,5.422,0,0,1,7.745-2,5.609,5.609,0,0,1,1.7,7.329l-3.441,6.489-5.349,11.715" fill="#E98862"></path><path d="M305.678,288.144,357.567,379.1,410.6,282.264l63.375,35.383L388.655,467.568a35.566,35.566,0,0,1-11.25,11.978,35.045,35.045,0,0,1-48.52-10.1l-.438-.669-91-138.864Z" fill="#367cff"></path><path d="M253.594,184.752a3,3,0,0,0,2.44-2.22c.257-1.005,6.131-24.983-9.312-56.359-16.728-33.986-55.41-28.3-55.8-28.243a3,3,0,0,0,.931,5.928h0c1.412-.219,34.733-5.006,49.485,24.966,14.473,29.406,8.94,51.994,8.883,52.219a3,3,0,0,0,3.372,3.709Z" fill="#0cbc8b"></path><circle cx="251.531" cy="187.263" r="22.79" fill="#0cbc8b"></circle><circle cx="251.531" cy="187.263" r="22.79" fill="#fff" opacity="0.3"></circle><circle cx="246.13" cy="188.115" r="22.79" fill="#0cbc8b"></circle><path d="M131.863,165.859s-2.146,32.216-9.394,43.9c-20.866,33.648-26.911,71.5-6.016,91.277S270.624,321.091,280.72,275.6c8.5-38.294-9.741-42.412-14.18-74-2.008-14.294-7.533-44.267-7.533-44.267" fill="#0a0a0a"></path><path id="sk" d="M246.223,268.935c-.23-.03-2.783,42.33-51.994,38.637-34.068-2.552-46.215-38.7-46.995-38.7,3.673-.781,9.858-1.916,11.49-2.786,5.364-2.883,12-5.882,13.731-16.3,1-6-.694-36.722-.174-42.8l52.294,11.672c-.73,12.83-5.845,42.575,12.08,47.839C239.638,267.374,242.85,268.174,246.223,268.935Z" fill="#E98862"></path><path id="sh" d="M225.308,254.347a37.911,37.911,0,0,1-1.573-8.116,86.576,86.576,0,0,1,.342-18.878,57.328,57.328,0,0,1-28.9-12.662c-.971,3.586-6.312,19.255-4.833,22.664C193.137,243.8,206.271,254.347,225.308,254.347Z" fill="#0c0c0c" opacity="0.5"></path><path d="M218.546,241.149c-20.618,2-47.294-6.252-52.82-33.708l-4.986-24.774c-5.526-27.456,4.415-52.617,30.266-57.82h0c25.852-5.2,49.654,13.166,55.181,40.622l2.207,10.968C250.514,186.972,255.331,237.59,218.546,241.149Z" fill="#E98862"></path><ellipse cx="204.904" cy="200.663" rx="6.187" ry="4.538" transform="translate(-22.331 25.69) rotate(-6.804)" fill="#0c0c0c" opacity="0.1"></ellipse><path d="M241.292,195.221c.3,2.485,3.295,4.172,6.688,3.772a8.542,8.542,0,0,0,1.724-.391c.157-2.963.167-5.814.08-8.453a7.805,7.805,0,0,0-2.884-.169C243.507,190.381,241,192.725,241.292,195.221Z" fill="#0c0c0c" opacity="0.1"></path><path d="M226.3,202.9l.05-.008a29.031,29.031,0,0,0,3.1-.827c1.518-.508,3.5-1.342,3.228-2.715-.314-1.565-8-17.582-8.872-19.4a.666.666,0,1,0-1.2.577c3.277,6.821,8.555,18.035,8.767,19.089-.166.491-2.684,1.45-5.283,1.974a.665.665,0,0,0,.212,1.313Z" fill="#0c0c0c" opacity="0.5"></path><path d="M140.113,191.56l23.176-4.527c17.507-7.321,22.474-37.832,22.474-37.832s21.606,20.576,73.244,8.133c0,0-11.217-72.085-87.464-50.2-24.586,7.055-42,32.114-39.41,65.307C133.947,195.7,140.113,191.56,140.113,191.56Z" fill="#0a0a0a"></path><path d="M169.015,215.483c-7.856,1.581-15.916-5.542-17.5-13.4s3.915-13.471,11.771-15.052l5.108,4.449,7.373,22.641Z" fill="#E98862"></path><path d="M229.375,167.178a13.631,13.631,0,0,1,6.663-2.448,12.055,12.055,0,0,1,3.6.2,14.577,14.577,0,0,1,3.451,1.169l.034.016a.509.509,0,0,0,.433-.922,15.66,15.66,0,0,0-3.675-1.383,13.224,13.224,0,0,0-3.937-.349,14.991,14.991,0,0,0-7.5,2.5.764.764,0,1,0,.86,1.264l.018-.013Z" fill="#0c0c0c"></path><path d="M208.2,170.1a15.007,15.007,0,0,0-7.888.558,13.227,13.227,0,0,0-3.5,1.829,15.67,15.67,0,0,0-2.866,2.685.509.509,0,0,0,.752.686l.027-.028a14.559,14.559,0,0,1,2.74-2.4,12.025,12.025,0,0,1,3.254-1.563,13.611,13.611,0,0,1,7.092-.289l.058.014a.764.764,0,0,0,.36-1.485Z" fill="#0c0c0c"></path><path d="M163.305,186.653c15.579-5.8,20.749-16.558,22.341-24.564a39.037,39.037,0,0,0-.283-16.135l-.482.132a38.529,38.529,0,0,1,.272,15.924c-1.572,7.874-6.668,18.461-22.023,24.175Z" fill="#0c0c0c"></path><path id="b_1_b" d="M193.311,296.983c-34.092-1.607-35.527-30.544-35.527-30.544s-16.892,1.092-28.121,2.611c-18.384,2.488-30.512,8.722-40.163,18.373-8.979,8.978-14.445,18.692-8.661,80.711,4.189,44.9,1.241,143.679,1.241,143.679H289.83s14.507-142.7,16.227-162.911c3.282-38.589,12.555-47.108-6.233-66.986-13.625-14.416-48.8-15.477-62.958-15.474C236.635,266.442,239.739,299.171,193.311,296.983Z" fill="#367cff"></path><path d="M289.288,507.839c-87.974,0-109.151-38.55-118.263-76.26-10.081-41.715-4.632-77.156.176-108.426,2.256-14.674,4.387-28.533,4.387-40.889,0-37.121-14.017-59.09-14.159-59.307l1.676-1.092c.145.222,14.483,22.644,14.483,60.4,0,12.508-2.142,26.442-4.41,41.193-4.78,31.087-10.2,66.321-.209,107.652,8.93,36.953,29.732,74.73,116.319,74.73Z" fill="#0cbc8b"></path><path d="M289.288,507.839c-87.974,0-109.151-38.55-118.263-76.26-10.081-41.715-4.632-77.156.176-108.426,2.256-14.674,4.387-28.533,4.387-40.889,0-37.121-14.017-59.09-14.159-59.307l1.676-1.092c.145.222,14.483,22.644,14.483,60.4,0,12.508-2.142,26.442-4.41,41.193-4.78,31.087-10.2,66.321-.209,107.652,8.93,36.953,29.732,74.73,116.319,74.73Z" fill="#fff" opacity="0.3"></path><path d="M302.8,356.907a.5.5,0,0,1,1,.063L299.614,423.8a.5.5,0,0,1-.459.467.561.561,0,0,1-.071,0,.5.5,0,0,1-.468-.53" fill="#0c0c0c"></path><path d="M264.272,416l31.274-13.967a5.42,5.42,0,0,1,7.336,3.19,5.608,5.608,0,0,1-3.173,6.821l-6.706,3,25.411.261c2.826-.02,6.307,1.762,6.12,4.934a5.417,5.417,0,0,1-4.164,5.306.369.369,0,0,1,.012.081.456.456,0,0,1-.013.062l4.358-.032a5.425,5.425,0,0,1,5.352,6.506,5.548,5.548,0,0,1-5.476,4.334l-1.854.014a.483.483,0,0,1-.1.144,5.419,5.419,0,0,1,4.222,5.608,5.593,5.593,0,0,1-5.63,5.1l-4.606.033a.467.467,0,0,1,.127.668,5.425,5.425,0,0,1,2.727,5.987,5.546,5.546,0,0,1-5.449,4.2l-38.86.277a27.292,27.292,0,0,1-25.422-16.876h0a18.011,18.011,0,0,1,9.3-23.318Z" fill="#E98862"></path><g opacity="0.2"><path d="M295.216,425.4a.5.5,0,0,0,.5.493l24.166.218a.5.5,0,0,0,.009-1l-24.166-.218a.5.5,0,0,0-.5.5Z" fill="#0c0c0c"></path></g><g opacity="0.2"><path d="M294.826,436.058a.5.5,0,0,0,.5.492l26.969.243a.5.5,0,0,0,.5-.5.519.519,0,0,0-.5-.5l-26.969-.243a.5.5,0,0,0-.5.5Z" fill="#0c0c0c"></path></g><g opacity="0.2"><path d="M294.337,447.6a.5.5,0,0,0,.5.493l21.513.194a.5.5,0,0,0,.009-1l-21.513-.195a.5.5,0,0,0-.5.5Z" fill="#0c0c0c"></path></g><path id="b_4_b" d="M273.223,471.679,99.836,511.093a37.5,37.5,0,0,1-41.038-43.5l19.842-159.6A37.5,37.5,0,1,1,152.6,320.432l-9.555,114.235L263.51,407.406Z" fill="#367cff"></path><g id="b_4_st"><path d="M118.669,439.159a.5.5,0,0,1-.073-1l24.161-5.158a.494.494,0,0,1,.569.42.5.5,0,0,1-.421.568l-24.161,5.159A.474.474,0,0,1,118.669,439.159Z" fill="#0c0c0c"></path></g><g id="b_4_st-2" data-name="b_4_st"><path d="M105.038,511.813a.5.5,0,0,1-.065-1l167.162-39.371-9.471-63.3L142.919,434a.51.51,0,0,1-.426-.148.5.5,0,0,1-.134-.431l6.717-65.27a.492.492,0,0,1,.576-.41.5.5,0,0,1,.41.576l-6.6,64.6,119.434-25.871a.5.5,0,0,1,.618.362l9.713,64.273a.5.5,0,0,1-.353.6L105.1,511.809A.482.482,0,0,1,105.038,511.813Z" fill="#0c0c0c"></path></g><path d="M233.211,208.314a33.814,33.814,0,0,1-21.721,3.061,1.369,1.369,0,0,0-1.451,2.009c2.2,3.877,7.418,10.5,16.37,7.8,5.78-1.744,7.965-7.691,8.775-11.369A1.368,1.368,0,0,0,233.211,208.314Z" fill="#fff"></path><circle cx="233.63" cy="175.284" r="3.237" fill="#0c0c0c"></circle><circle cx="202.526" cy="180.73" r="3.237" fill="#0c0c0c"></circle><path d="M154.921,199.05a3,3,0,0,0,2.5-3.431l-5.329-33.756c-2.711-17.177-.1-31.538,7.537-41.53,7.243-9.471,18.888-15.139,34.6-16.853a3,3,0,0,0-.65-5.965c-17.409,1.893-30.437,8.347-38.716,19.173-8.663,11.328-11.671,27.272-8.7,46.11l5.328,33.756A3,3,0,0,0,154.921,199.05Z" fill="#0cbc8b"></path><circle cx="159.883" cy="201.729" r="22.79" fill="#0cbc8b"></circle><circle cx="154.482" cy="202.582" r="22.79" fill="#0cbc8b"></circle><circle cx="154.482" cy="202.582" r="22.79" fill="#fff" opacity="0.3"></circle><path d="M636.369,318.177a316.764,316.764,0,0,1-66.317,194.446H66.317A316.77,316.77,0,0,1,0,318.177C0,142.447,142.461,0,318.192,0S636.369,142.447,636.369,318.177Z" fill="#367cff" opacity="0.1"></path><path d="M348.591,499.33l37.372-114.88a10.054,10.054,0,0,1,9.562-6.945H547.782a10.056,10.056,0,0,1,9.562,13.166L519.971,505.552a10.055,10.055,0,0,1-9.562,6.944H358.153A10.055,10.055,0,0,1,348.591,499.33Z" fill="#292a2e"></path><rect x="272.558" y="503.181" width="111.117" height="9.315" rx="4.598" fill="#292a2e"></rect><circle cx="455.259" cy="448.313" r="15.969" fill="#fff"></circle><circle cx="519.956" cy="202.811" r="12.894" fill="#292a2e"></circle><rect x="550.454" y="199.15" width="2" height="316.109" transform="translate(-51.902 97.094) rotate(-9.612)" fill="#292a2e"></rect><rect x="540.454" y="199.15" width="2" height="316.109" transform="translate(-52.043 95.424) rotate(-9.612)" fill="#292a2e"></rect><rect x="355.075" y="221.905" width="168.355" height="2" transform="translate(-48.365 153.203) rotate(-18.771)" fill="#292a2e"></rect><rect x="355.075" y="231.905" width="168.355" height="2" transform="translate(-51.583 153.735) rotate(-18.771)" fill="#292a2e"></rect><ellipse cx="311.468" cy="205.431" rx="14.653" ry="33.548" transform="translate(-36.649 71.159) rotate(-12.315)" fill="#292a2e"></ellipse><g opacity="0.06"><ellipse cx="311.468" cy="205.431" rx="14.653" ry="33.548" transform="translate(-36.649 71.159) rotate(-12.315)" fill="#fff"></ellipse></g><path d="M341.6,159.185h12.674a8.042,8.042,0,0,1,8.042,8.042v51.555a0,0,0,0,1,0,0H333.562a0,0,0,0,1,0,0V167.227a8.042,8.042,0,0,1,8.042-8.042Z" transform="translate(-32.301 78.56) rotate(-12.315)" fill="#0cbc8b"></path><g opacity="0.27"><path d="M341.6,159.185h12.674a8.042,8.042,0,0,1,8.042,8.042v51.555a0,0,0,0,1,0,0H333.562a0,0,0,0,1,0,0V167.227a8.042,8.042,0,0,1,8.042-8.042Z" transform="translate(-32.301 78.56) rotate(-12.315)" fill="#fff"></path></g><path d="M342.108,217.86h28.757a0,0,0,0,1,0,0v10.986a9.555,9.555,0,0,1-9.555,9.555h-9.647a9.555,9.555,0,0,1-9.555-9.555V217.86A0,0,0,0,1,342.108,217.86Z" transform="translate(-40.454 81.283) rotate(-12.315)" fill="#0cbc8b"></path><path d="M317.21,239.358c-8.174,0-17.162-12.848-21.035-30.589-1.94-8.886-2.249-17.587-.87-24.5,1.435-7.194,4.558-11.666,8.8-12.591,8.58-1.867,18.529,11.488,22.661,30.414h0c4.132,18.927.651,35.219-7.924,37.092A7.638,7.638,0,0,1,317.21,239.358ZM305.723,173.5a5.6,5.6,0,0,0-1.2.128c-3.362.734-6.008,4.754-7.259,11.029-1.326,6.648-1.02,15.059.863,23.682,3.762,17.235,13.04,30.467,20.28,28.886s10.16-17.474,6.4-34.71C321.249,186.22,312.75,173.5,305.723,173.5Z" fill="#292a2e"></path><path d="M334.622,263.549a14.3,14.3,0,0,1-13.941-11.23l-3.034-13.9,1.954-.427,3.034,13.9a12.273,12.273,0,0,0,14.607,9.372L362.27,255.8l.426,1.954-25.027,5.464A14.273,14.273,0,0,1,334.622,263.549Z" fill="#292a2e"></path><path d="M356.858,229.887h8.577a0,0,0,0,1,0,0v37.252a4.288,4.288,0,0,1-4.288,4.288h0a4.288,4.288,0,0,1-4.288-4.288V229.887A0,0,0,0,1,356.858,229.887Z" transform="translate(-45.152 82.796) rotate(-12.315)" fill="#0cbc8b"></path><rect x="557.075" y="503.181" width="34.857" height="9.858" fill="#292a2e"></rect><path d="M394.09,126.418H298.182l-22.513,14.745V60.288A11.347,11.347,0,0,1,287.016,48.94H394.09a11.348,11.348,0,0,1,11.348,11.348V115.07A11.348,11.348,0,0,1,394.09,126.418Z" fill="#0cbc8b"></path><path d="M291.65,105.209a.851.851,0,0,1-.85-.85V71a.85.85,0,1,1,1.7,0v33.36A.85.85,0,0,1,291.65,105.209Z" fill="#fff"></path><path d="M307.951,109.46a.851.851,0,0,1-.85-.85V66.748a.85.85,0,0,1,1.7,0V108.61A.85.85,0,0,1,307.951,109.46Z" fill="#fff"></path><path d="M389.456,100.958a.85.85,0,0,1-.85-.85V75.25a.85.85,0,0,1,1.7,0v24.858A.849.849,0,0,1,389.456,100.958Z" fill="#fff"></path><path d="M299.8,98.833a.85.85,0,0,1-.85-.85V77.375a.85.85,0,1,1,1.7,0V97.983A.851.851,0,0,1,299.8,98.833Z" fill="#fff"></path><path d="M324.252,94.582a.851.851,0,0,1-.85-.85V81.626a.85.85,0,0,1,1.7,0V93.732A.85.85,0,0,1,324.252,94.582Z" fill="#fff"></path><path d="M316.1,101.171a.85.85,0,0,1-.85-.85V75.037a.85.85,0,0,1,1.7,0v25.284A.851.851,0,0,1,316.1,101.171Z" fill="#fff"></path><path d="M365.005,109.46a.851.851,0,0,1-.851-.85V66.748a.851.851,0,0,1,1.7,0V108.61A.851.851,0,0,1,365.005,109.46Z" fill="#fff"></path><path d="M356.854,98.833a.85.85,0,0,1-.85-.85V77.375a.85.85,0,1,1,1.7,0V97.983A.85.85,0,0,1,356.854,98.833Z" fill="#fff"></path><path d="M381.306,94.582a.85.85,0,0,1-.85-.85V81.626a.85.85,0,0,1,1.7,0V93.732A.85.85,0,0,1,381.306,94.582Z" fill="#fff"></path><path d="M373.155,101.171a.85.85,0,0,1-.85-.85V75.037a.85.85,0,0,1,1.7,0v25.284A.85.85,0,0,1,373.155,101.171Z" fill="#fff"></path><path d="M348.7,96.707a.85.85,0,0,1-.85-.85V79.5a.851.851,0,0,1,1.7,0V95.857A.85.85,0,0,1,348.7,96.707Z" fill="#fff"></path><path d="M340.553,103.3a.85.85,0,0,1-.85-.85V72.912a.85.85,0,0,1,1.7,0v29.534A.851.851,0,0,1,340.553,103.3Z" fill="#fff"></path><path d="M332.4,111.585a.849.849,0,0,1-.85-.85V64.623a.85.85,0,1,1,1.7,0v46.112A.85.85,0,0,1,332.4,111.585Z" fill="#fff"></path><path d="M620.712,514.039h-583a1,1,0,1,1,0-2h583a1,1,0,0,1,0,2Z" fill="#292a2e"></path></svg>